<?xml version="1.0" encoding="utf-8"?>
<!-- Svg Vector Icons : http://www.onlinewebfonts.com/icon -->
<!DOCTYPE svg PUBLIC "-//W3C//DTD SVG 1.1//EN" "http://www.w3.org/Graphics/SVG/1.1/DTD/svg11.dtd">
<svg version="1.1" xmlns="http://www.w3.org/2000/svg" xmlns:xlink="http://www.w3.org/1999/xlink" x="0px" y="0px" viewBox="0 0 1000 1000" enable-background="new 0 0 1000 1000" xml:space="preserve">
<metadata> Svg Vector Icons : http://www.onlinewebfonts.com/icon </metadata>
<g><g id="_x33_e91140ac1bfb9903b91c1b0ca092829"><path d="M989.9,595.6c0,0,0.1,0,0.1,0c0,0,0,88.5,0,97.7c0,9.8-11.8,20.5-38.4,34.4c-52.3,27.3-323.2,138.7-380.9,168.7c-57.7,30.1-89.7,29.8-135.3,8c-45.6-21.8-333.9-138.2-385.8-163.1c-26-12.4-39.6-22.9-39.6-32.8c0-9.9,0-99,0-99.1c0.4,9.9,13.7,20.3,39.6,32.7c51.9,24.8,340.2,141.3,385.8,163.1c45.6,21.8,77.6,22.1,135.3-8c57.7-30.1,328.6-141.5,380.9-168.7C977,615.4,989.5,605,989.9,595.6z M10,379.1c0-9.5,0-92.1,0-98.6c0,0,0,0,0-0.1c0-0.2,0-0.4,0-0.4c0,0,0,0.1,0,0.1c-0.1-9.8,12.3-19,37.6-28.8c51-20,337.7-132.5,398.3-154.2c60.6-21.7,81.6-22.5,133.2-3.6C630.7,112.4,900,219.6,951,238.3c25.9,9.5,39,18.1,39,27.9c0,0,0,0,0,0c0,0,0,88.5,0,97.7c0,9.8-11.8,20.5-38.4,34.4c-52.3,27.3-323.2,138.7-380.9,168.7c-57.7,30.1-89.7,29.8-135.3,8c-45.6-21.8-333.9-138.2-385.8-163.1C23.6,399.4,10,389,10,379.1z M588,325.5l-227.1,34.9l158.5,65.7L588,325.5z M728.8,216.6l-148.7,58.8l134.2,53.1l14.5-5.7l134.3-53L728.8,216.6z M395.7,198.9l98,8.8l30.7,51l19-45.8l84.9-8.8l-65.9-24.6l17.5-41.9l-64.6,21.1L446.9,132l22,40.5L395.7,198.9z M178.3,276.6c0,26,54.3,47,121.4,47c67,0,121.4-21.1,121.4-47c0-26-54.3-47-121.4-47C232.6,229.6,178.3,250.7,178.3,276.6z M951.6,467.1c-52.3,27.3-323.2,138.7-380.9,168.7c-57.7,30.1-89.7,29.8-135.3,8C389.8,622,101.5,505.6,49.6,480.7c-26-12.4-39.2-22.9-39.6-32.7c0,0.2,0,89.2,0,99.1c0,9.9,13.6,20.3,39.6,32.8c51.9,24.8,340.2,141.3,385.8,163.1c45.6,21.8,77.6,22.1,135.3-8c57.7-30.1,328.6-141.5,380.9-168.7c26.6-13.9,38.4-24.6,38.4-34.4c0-9.2,0-97.7,0-97.7c0,0-0.1,0-0.1,0C989.5,443.4,977,453.8,951.6,467.1z"/></g></g>
</svg>