<?xml version="1.0" encoding="UTF-8"?>
<svg width="805px" height="489px" viewBox="0 0 805 489" version="1.1" xmlns="http://www.w3.org/2000/svg" xmlns:xlink="http://www.w3.org/1999/xlink">
    <!-- Generator: Sketch 50.2 (55047) - http://www.bohemiancoding.com/sketch -->
    <title>Slice</title>
    <desc>Created with Sketch.</desc>
    <defs></defs>
    <g id="Page-1" stroke="none" stroke-width="1" fill="none" fill-rule="evenodd">
        <rect id="Rectangle" fill="#D8D8D8" x="0" y="0" width="327" height="45"></rect>
        <rect id="Rectangle" fill-opacity="0.943161232" fill="#000000" x="346" y="0" width="352" height="45"></rect>
        <rect id="Rectangle" fill-opacity="0.126019022" fill="#4A4A4A" x="0" y="74" width="77" height="45"></rect>
        <rect id="Rectangle" fill-opacity="0.940415534" fill="#4A4A4A" x="100" y="74" width="403" height="45"></rect>
        <rect id="Rectangle" fill-opacity="0.670827672" fill="#4A4A4A" x="529" y="74" width="98" height="45"></rect>
        <rect id="Rectangle" fill-opacity="0.162533967" fill="#464A4A" x="0" y="148" width="425" height="45"></rect>
        <rect id="Rectangle" fill-opacity="0.31176404" fill="#464A4A" x="475" y="148" width="255" height="45"></rect>
        <rect id="Rectangle" fill-opacity="0.53943048" fill="#000000" x="213" y="222" width="352" height="45"></rect>
        <rect id="Rectangle" fill-opacity="0.834380661" fill="#000000" x="0" y="222" width="176" height="45"></rect>
        <rect id="Rectangle" fill-opacity="0.637284873" fill="#4A4A4A" x="0" y="296" width="240" height="45"></rect>
        <rect id="Rectangle" fill-opacity="0.851364357" fill="#000000" x="274" y="444" width="476" height="45"></rect>
        <rect id="Rectangle" fill-opacity="0.910297781" fill="#4A4A4A" x="2" y="444" width="240" height="45"></rect>
        <rect id="Rectangle" fill-opacity="0.896286232" fill="#000000" x="497" y="296" width="308" height="45"></rect>
        <rect id="Rectangle" fill-opacity="0.179064764" fill="#000000" x="274" y="296" width="189" height="45"></rect>
        <rect id="Rectangle" fill-opacity="0.932291667" fill="#000000" x="0" y="370" width="176" height="45"></rect>
        <rect id="Rectangle" fill-opacity="0.42541327" fill="#4A4A4A" x="202" y="370" width="441" height="45"></rect>
    </g>
</svg>