<?xml version="1.0" encoding="utf-8"?>
<!-- Svg Vector Icons : http://www.onlinewebfonts.com/icon -->
<!DOCTYPE svg PUBLIC "-//W3C//DTD SVG 1.1//EN" "http://www.w3.org/Graphics/SVG/1.1/DTD/svg11.dtd">
<svg version="1.1" xmlns="http://www.w3.org/2000/svg" xmlns:xlink="http://www.w3.org/1999/xlink" x="0px" y="0px" viewBox="0 0 1000 1000" enable-background="new 0 0 1000 1000" xml:space="preserve">
<metadata> Svg Vector Icons : http://www.onlinewebfonts.com/icon </metadata>
<g><g transform="translate(0.000000,641.000000) scale(0.100000,-0.100000)"><path d="M2147.3,6299.3l-301.7-4.6v-2473c0-1359.7,3.1-2473,6.1-2473c3.1,0,160.8,58.2,349.1,128.6c1344.4,502.3,2310.7,767.2,3022.7,822.3c468.6,38.3,785.5-50.5,889.7-245l35.2-67.4V-752.1V-3490h727.3h728.9l-6.1,2837.4l-4.6,2835.9l-33.7,145.5c-114.8,505.3-349.1,823.8-753.4,1032.1c-315.4,160.8-629.3,223.6-1120.9,223.6c-387.4,0-649.2-26-1068.8-108.7c-336.9-65.8-883.5-215.9-1137.7-312.4c-56.7-21.4-107.2-38.3-110.3-38.3c-4.6,0-7.7,716.6-7.7,1592.5V6310l-454.8-3.1C2655.7,6303.9,2314.2,6300.8,2147.3,6299.3z"/><path d="M6405.7,6092.6c-283.3-604.8-618.6-1194.4-882-1548.1l-122.5-163.8h805.4l807,1.5l137.8,186.8c183.8,249.6,418,601.8,565,845.3c121,203.7,437.9,825.3,437.9,860.6c0,15.3-159.2,19.9-826.9,19.9h-826.9L6405.7,6092.6z"/><path d="M1860.9-1958.7c0-834.5,1.5-1515.9,4.6-1515.9c1.5,0,346.1,343,765.6,762.6l761,761l-754.9,754.9c-413.4,413.4-758,753.4-764.1,753.4C1865.5-442.8,1860.9-1124.2,1860.9-1958.7z"/></g></g>
</svg>